<svg width="172" height="36" viewBox="0 0 172 36" fill="none" xmlns="http://www.w3.org/2000/svg">
<path d="M35.1629 24.2498C35.1629 24.7246 35.2769 25.0379 35.5047 25.1898C35.7421 25.3417 36.2263 25.4176 36.9574 25.4176C39.236 25.4176 41.1111 24.9667 42.5828 24.0647C44.8424 22.6785 45.9722 20.3097 45.9722 16.9582C45.9722 13.9674 45.0418 11.7173 43.1809 10.2077C41.5859 8.91645 39.4734 8.27083 36.8434 8.27083C36.1883 8.27083 35.7421 8.34204 35.5047 8.48446C35.2769 8.62687 35.1629 8.94019 35.1629 9.4244V24.2498ZM29.6372 25.9731C30.7006 25.8591 31.3937 25.6692 31.7165 25.4034C32.0393 25.1281 32.2007 24.4397 32.2007 23.3384V10.3643C32.2007 9.30097 32.044 8.61738 31.7307 8.31356C31.4174 8.00974 30.7196 7.81985 29.6372 7.7439V7.20272H37.4985C40.1475 7.20272 42.3881 7.63946 44.2205 8.51294C47.5246 10.0795 49.1766 12.8803 49.1766 16.9154C49.1766 18.3681 48.8775 19.7495 48.2794 21.0597C47.6907 22.37 46.7983 23.476 45.602 24.378C44.8424 24.9477 44.0544 25.3797 43.2379 25.674C41.7473 26.2247 39.9148 26.5 37.7406 26.5H29.6372V25.9731ZM52.6373 8.11418C52.6373 7.70592 52.7797 7.35463 53.0645 7.0603C53.3494 6.76598 53.7007 6.61882 54.1184 6.61882C54.5267 6.61882 54.8732 6.76598 55.158 7.0603C55.4524 7.34513 55.5995 7.69643 55.5995 8.11418C55.5995 8.52243 55.4524 8.87373 55.158 9.16805C54.8732 9.45288 54.5267 9.5953 54.1184 9.5953C53.7007 9.5953 53.3494 9.45288 53.0645 9.16805C52.7797 8.87373 52.6373 8.52243 52.6373 8.11418ZM50.8144 26.1012C51.8303 26.0063 52.4711 25.8354 52.737 25.5885C53.0028 25.3322 53.1357 24.6486 53.1357 23.5378V16.7445C53.1357 16.1274 53.093 15.7002 53.0076 15.4628C52.8652 15.0735 52.5661 14.8789 52.1104 14.8789C52.0059 14.8789 51.9015 14.8884 51.797 14.9074C51.7021 14.9264 51.4173 15.0023 50.9425 15.1353V14.6938L51.5549 14.4944C53.2164 13.9532 54.3748 13.5449 55.0299 13.2696C55.2957 13.1557 55.4666 13.0987 55.5426 13.0987C55.5615 13.1652 55.571 13.2364 55.571 13.3123V23.5378C55.571 24.6201 55.6992 25.299 55.9556 25.5743C56.2214 25.8496 56.8148 26.0253 57.7358 26.1012V26.5H50.8144V26.1012ZM66.7222 18.6102C65.6303 18.971 64.7284 19.3697 64.0163 19.8065C62.6491 20.6515 61.9655 21.6104 61.9655 22.6833C61.9655 23.5473 62.2503 24.1834 62.82 24.5916C63.1903 24.8575 63.6033 24.9904 64.059 24.9904C64.6856 24.9904 65.2838 24.8148 65.8534 24.4635C66.4326 24.1122 66.7222 23.6659 66.7222 23.1248V18.6102ZM59.4305 23.6659C59.4305 22.2893 60.1188 21.1404 61.4955 20.2195C62.369 19.6498 64.1112 18.876 66.7222 17.8981V16.6876C66.7222 15.7192 66.6272 15.0451 66.4373 14.6653C66.1145 14.0292 65.4452 13.7111 64.4293 13.7111C63.9451 13.7111 63.4846 13.8345 63.0479 14.0814C62.6111 14.3377 62.3927 14.689 62.3927 15.1353C62.3927 15.2492 62.4165 15.4438 62.4639 15.7192C62.5114 15.985 62.5352 16.1559 62.5352 16.2319C62.5352 16.7635 62.3595 17.1338 62.0082 17.3427C61.8088 17.4661 61.5715 17.5278 61.2961 17.5278C60.8689 17.5278 60.5413 17.3902 60.3135 17.1148C60.0856 16.83 59.9717 16.5167 59.9717 16.1749C59.9717 15.5103 60.3799 14.8172 61.1965 14.0956C62.0225 13.3646 63.2282 12.999 64.8138 12.999C66.6557 12.999 67.9042 13.5972 68.5593 14.7935C68.9106 15.4486 69.0863 16.4028 69.0863 17.656V23.3669C69.0863 23.9175 69.1242 24.2973 69.2002 24.5062C69.3236 24.8765 69.58 25.0616 69.9692 25.0616C70.1876 25.0616 70.368 25.0284 70.5104 24.9619C70.6528 24.8955 70.8997 24.734 71.251 24.4777V25.2183C70.9472 25.5885 70.6196 25.8924 70.2683 26.1297C69.7366 26.4905 69.1954 26.6709 68.6448 26.6709C67.9992 26.6709 67.5292 26.462 67.2349 26.0443C66.95 25.6265 66.7934 25.1281 66.7649 24.5489C66.0433 25.1755 65.4262 25.6408 64.9135 25.9446C64.0495 26.4573 63.2282 26.7136 62.4497 26.7136C61.6332 26.7136 60.9259 26.4288 60.3277 25.8591C59.7296 25.28 59.4305 24.5489 59.4305 23.6659ZM71.9203 26.1012C72.8033 26.0158 73.4014 25.8401 73.7148 25.5743C74.0281 25.299 74.1847 24.7673 74.1847 23.9792V10.0653C74.1847 9.43864 74.1325 9.00665 74.0281 8.76929C73.8382 8.37052 73.4537 8.17114 72.8745 8.17114C72.7416 8.17114 72.5944 8.18538 72.433 8.21387C72.2811 8.24235 72.0865 8.28508 71.8491 8.34204V7.87207C73.1309 7.53027 74.6737 7.07454 76.4776 6.50488C76.5441 6.50488 76.5821 6.53337 76.5916 6.59033C76.6105 6.6473 76.62 6.77073 76.62 6.96061V24.0362C76.62 24.8622 76.7624 25.3987 77.0473 25.6455C77.3321 25.8829 77.9208 26.0348 78.8132 26.1012V26.5H71.9203V26.1012ZM80.1804 19.8919C80.1804 18.0026 80.7786 16.4075 81.9749 15.1068C83.1806 13.7965 84.7282 13.1414 86.6176 13.1414C88.4975 13.1414 90.0545 13.7586 91.2888 14.9928C92.5231 16.2271 93.1402 17.8696 93.1402 19.9204C93.1402 21.8098 92.5421 23.4523 91.3458 24.848C90.1495 26.2437 88.6019 26.9415 86.703 26.9415C84.8801 26.9415 83.3373 26.2721 82.0745 24.9334C80.8118 23.5947 80.1804 21.9142 80.1804 19.8919ZM86.2188 13.9959C85.4688 13.9959 84.8184 14.2428 84.2677 14.7365C83.3183 15.6005 82.8436 17.0911 82.8436 19.2083C82.8436 20.8983 83.2234 22.4744 83.9829 23.9365C84.752 25.3987 85.8153 26.1297 87.173 26.1297C88.2364 26.1297 89.0529 25.6408 89.6226 24.6628C90.2017 23.6849 90.4913 22.4032 90.4913 20.8176C90.4913 19.1751 90.1258 17.6275 89.3947 16.1749C88.6636 14.7222 87.605 13.9959 86.2188 13.9959ZM96.8857 29.1347C96.8857 29.9322 97.332 30.4829 98.2244 30.7867C99.1264 31.0905 100.157 31.2424 101.315 31.2424C102.891 31.2424 104.173 30.9671 105.16 30.4164C106.147 29.8752 106.641 29.2059 106.641 28.4084C106.641 27.7722 106.242 27.3497 105.445 27.1409C104.951 27.0174 104.016 26.9462 102.639 26.9272C102.288 26.9178 101.918 26.9035 101.528 26.8845C101.139 26.875 100.783 26.8608 100.46 26.8418C100.251 26.8323 99.9144 26.7943 99.4492 26.7279C98.984 26.6614 98.6375 26.6044 98.4096 26.557C98.2957 26.557 98.0156 26.856 97.5693 27.4542C97.1136 28.0618 96.8857 28.622 96.8857 29.1347ZM98.7371 21.7148C97.8732 21.43 97.1991 20.9221 96.7148 20.191C96.2401 19.4599 96.0028 18.6387 96.0028 17.7272C96.0028 16.6164 96.4443 15.5625 97.3272 14.5656C98.2102 13.5687 99.4587 13.0702 101.073 13.0702C101.766 13.0702 102.53 13.2364 103.366 13.5687C104.201 13.8915 105.003 14.0529 105.772 14.0529C105.972 14.0529 106.271 14.0482 106.67 14.0387C107.078 14.0197 107.372 14.0102 107.553 14.0102H107.724V15.1637H105.26C105.431 15.5625 105.564 15.909 105.659 16.2034C105.82 16.754 105.901 17.2762 105.901 17.7699C105.901 18.8523 105.45 19.8492 104.548 20.7607C103.655 21.6626 102.449 22.1136 100.93 22.1136C100.693 22.1136 100.266 22.0709 99.6486 21.9854C99.3733 21.9854 99.0077 22.218 98.552 22.6833C98.1058 23.1485 97.8826 23.5283 97.8826 23.8226C97.8826 24.1264 98.215 24.3495 98.8796 24.4919C99.3163 24.5869 99.8005 24.6344 100.332 24.6344C102.772 24.6344 104.429 24.772 105.302 25.0474C106.736 25.4936 107.453 26.4525 107.453 27.9242C107.453 29.4243 106.613 30.6206 104.932 31.513C103.261 32.4055 101.571 32.8517 99.8622 32.8517C98.3051 32.8517 97.0709 32.5337 96.1594 31.8975C95.248 31.2709 94.7922 30.6111 94.7922 29.918C94.7922 29.5762 94.9109 29.2391 95.1483 28.9068C95.3951 28.584 95.8746 28.0998 96.5867 27.4542L97.5266 26.6139L97.6975 26.443C97.2608 26.2721 96.9332 26.106 96.7148 25.9446C96.3351 25.6503 96.1452 25.3132 96.1452 24.9334C96.1452 24.5821 96.3066 24.1976 96.6294 23.7799C96.9617 23.3526 97.6643 22.6643 98.7371 21.7148ZM101.443 21.43C101.965 21.43 102.402 21.2876 102.753 21.0028C103.323 20.547 103.608 19.7543 103.608 18.6244C103.608 17.7225 103.375 16.7066 102.91 15.5767C102.454 14.4469 101.69 13.882 100.617 13.882C99.6866 13.882 99.0457 14.3235 98.6944 15.2065C98.514 15.6717 98.4238 16.2461 98.4238 16.9297C98.4238 18.088 98.7039 19.1276 99.2641 20.0486C99.8242 20.9695 100.551 21.43 101.443 21.43ZM110.999 8.11418C110.999 7.70592 111.142 7.35463 111.426 7.0603C111.711 6.76598 112.062 6.61882 112.48 6.61882C112.888 6.61882 113.235 6.76598 113.52 7.0603C113.814 7.34513 113.961 7.69643 113.961 8.11418C113.961 8.52243 113.814 8.87373 113.52 9.16805C113.235 9.45288 112.888 9.5953 112.48 9.5953C112.062 9.5953 111.711 9.45288 111.426 9.16805C111.142 8.87373 110.999 8.52243 110.999 8.11418ZM109.176 26.1012C110.192 26.0063 110.833 25.8354 111.099 25.5885C111.365 25.3322 111.498 24.6486 111.498 23.5378V16.7445C111.498 16.1274 111.455 15.7002 111.369 15.4628C111.227 15.0735 110.928 14.8789 110.472 14.8789C110.368 14.8789 110.263 14.8884 110.159 14.9074C110.064 14.9264 109.779 15.0023 109.304 15.1353V14.6938L109.917 14.4944C111.578 13.9532 112.737 13.5449 113.392 13.2696C113.658 13.1557 113.828 13.0987 113.904 13.0987C113.923 13.1652 113.933 13.2364 113.933 13.3123V23.5378C113.933 24.6201 114.061 25.299 114.317 25.5743C114.583 25.8496 115.177 26.0253 116.098 26.1012V26.5H109.176V26.1012ZM123.973 13.0702C125.16 13.0702 126.181 13.3788 127.035 13.9959C127.899 14.6036 128.331 15.2729 128.331 16.004C128.331 16.3173 128.222 16.6116 128.003 16.887C127.785 17.1528 127.448 17.2857 126.992 17.2857C126.66 17.2857 126.366 17.1718 126.109 16.9439C125.863 16.7161 125.682 16.3838 125.568 15.947L125.397 15.2634C125.274 14.7602 125.06 14.4042 124.756 14.1953C124.443 13.9959 124.03 13.8962 123.517 13.8962C122.435 13.8962 121.519 14.371 120.769 15.3204C120.028 16.2603 119.658 17.5136 119.658 19.0802C119.658 20.5138 120.066 21.8003 120.883 22.9396C121.709 24.0789 122.82 24.6486 124.215 24.6486C125.203 24.6486 126.081 24.3258 126.85 23.6802C127.287 23.3099 127.78 22.7212 128.331 21.9142L128.73 22.1563C128.189 23.2957 127.619 24.1976 127.021 24.8622C125.872 26.1345 124.543 26.7706 123.033 26.7706C121.552 26.7706 120.242 26.1867 119.103 25.0189C117.963 23.8511 117.394 22.2655 117.394 20.2622C117.394 18.2969 118.015 16.6069 119.259 15.1922C120.503 13.7776 122.074 13.0702 123.973 13.0702ZM138.044 18.6102C136.952 18.971 136.05 19.3697 135.338 19.8065C133.971 20.6515 133.287 21.6104 133.287 22.6833C133.287 23.5473 133.572 24.1834 134.142 24.5916C134.512 24.8575 134.925 24.9904 135.381 24.9904C136.007 24.9904 136.605 24.8148 137.175 24.4635C137.754 24.1122 138.044 23.6659 138.044 23.1248V18.6102ZM130.752 23.6659C130.752 22.2893 131.44 21.1404 132.817 20.2195C133.691 19.6498 135.433 18.876 138.044 17.8981V16.6876C138.044 15.7192 137.949 15.0451 137.759 14.6653C137.436 14.0292 136.767 13.7111 135.751 13.7111C135.267 13.7111 134.806 13.8345 134.369 14.0814C133.933 14.3377 133.714 14.689 133.714 15.1353C133.714 15.2492 133.738 15.4438 133.786 15.7192C133.833 15.985 133.857 16.1559 133.857 16.2319C133.857 16.7635 133.681 17.1338 133.33 17.3427C133.13 17.4661 132.893 17.5278 132.618 17.5278C132.191 17.5278 131.863 17.3902 131.635 17.1148C131.407 16.83 131.293 16.5167 131.293 16.1749C131.293 15.5103 131.702 14.8172 132.518 14.0956C133.344 13.3646 134.55 12.999 136.135 12.999C137.977 12.999 139.226 13.5972 139.881 14.7935C140.232 15.4486 140.408 16.4028 140.408 17.656V23.3669C140.408 23.9175 140.446 24.2973 140.522 24.5062C140.645 24.8765 140.902 25.0616 141.291 25.0616C141.509 25.0616 141.69 25.0284 141.832 24.9619C141.974 24.8955 142.221 24.734 142.573 24.4777V25.2183C142.269 25.5885 141.941 25.8924 141.59 26.1297C141.058 26.4905 140.517 26.6709 139.966 26.6709C139.321 26.6709 138.851 26.462 138.556 26.0443C138.272 25.6265 138.115 25.1281 138.087 24.5489C137.365 25.1755 136.748 25.6408 136.235 25.9446C135.371 26.4573 134.55 26.7136 133.771 26.7136C132.955 26.7136 132.247 26.4288 131.649 25.8591C131.051 25.28 130.752 24.5489 130.752 23.6659Z" fill="white"/>
<circle cx="1.70261" cy="10.4653" r="1.70139" fill="white"/>
<circle cx="1.70261" cy="26.9931" r="1.70139" fill="white"/>
<circle cx="5.10544" cy="18.7292" r="1.70139" fill="white"/>
<circle cx="9.23741" cy="26.5069" r="1.94444" fill="white"/>
<circle cx="12.64" cy="18.4862" r="1.94444" fill="white"/>
<circle cx="9.23741" cy="10.2223" r="1.94444" fill="white"/>
<circle cx="17.015" cy="10.7084" r="2.43056" fill="white"/>
<circle cx="20.9039" cy="18.4862" r="2.43056" fill="white"/>
<circle cx="17.015" cy="26.2641" r="2.43056" fill="white"/>
<path d="M110.002 35.8122C109.514 35.8122 109.115 35.7007 108.804 35.4778C108.498 35.2496 108.327 34.9411 108.291 34.5522H108.851C108.876 34.7907 108.988 34.9852 109.185 35.1356C109.387 35.2807 109.657 35.3533 109.994 35.3533C110.289 35.3533 110.52 35.2833 110.686 35.1433C110.857 35.0033 110.943 34.8296 110.943 34.6222C110.943 34.477 110.896 34.3578 110.803 34.2644C110.709 34.1711 110.59 34.0985 110.445 34.0467C110.305 33.9896 110.113 33.93 109.869 33.8678C109.553 33.7848 109.296 33.7019 109.099 33.6189C108.902 33.5359 108.734 33.4141 108.594 33.2533C108.459 33.0874 108.392 32.867 108.392 32.5922C108.392 32.3848 108.454 32.193 108.578 32.0167C108.703 31.8404 108.879 31.7004 109.107 31.5967C109.335 31.493 109.595 31.4411 109.885 31.4411C110.341 31.4411 110.709 31.5578 110.989 31.7911C111.269 32.0193 111.42 32.3356 111.441 32.74H110.896C110.881 32.4911 110.782 32.2915 110.601 32.1411C110.424 31.9856 110.181 31.9078 109.869 31.9078C109.595 31.9078 109.372 31.9726 109.201 32.1022C109.029 32.2319 108.944 32.3926 108.944 32.5844C108.944 32.7504 108.993 32.8878 109.092 32.9967C109.195 33.1004 109.322 33.1833 109.473 33.2456C109.623 33.3026 109.825 33.3674 110.079 33.44C110.385 33.523 110.629 33.6033 110.811 33.6811C110.992 33.7589 111.148 33.873 111.277 34.0233C111.407 34.1737 111.474 34.3733 111.479 34.6222C111.479 34.8504 111.417 35.0552 111.293 35.2367C111.168 35.413 110.995 35.553 110.772 35.6567C110.549 35.7604 110.292 35.8122 110.002 35.8122ZM114.363 35.8122C113.964 35.8122 113.604 35.7241 113.282 35.5478C112.966 35.3663 112.714 35.1122 112.528 34.7856C112.346 34.4537 112.255 34.0674 112.255 33.6267C112.255 33.1859 112.349 32.8022 112.535 32.4756C112.722 32.1437 112.976 31.8896 113.298 31.7133C113.619 31.5319 113.979 31.4411 114.379 31.4411C114.778 31.4411 115.138 31.5319 115.46 31.7133C115.787 31.8896 116.041 32.1437 116.222 32.4756C116.409 32.8022 116.502 33.1859 116.502 33.6267C116.502 34.0622 116.409 34.4459 116.222 34.7778C116.035 35.1096 115.779 35.3663 115.452 35.5478C115.125 35.7241 114.762 35.8122 114.363 35.8122ZM114.363 35.3378C114.643 35.3378 114.902 35.2756 115.141 35.1511C115.379 35.0215 115.571 34.8296 115.717 34.5756C115.867 34.3163 115.942 34 115.942 33.6267C115.942 33.2533 115.869 32.9396 115.724 32.6856C115.579 32.4263 115.387 32.2344 115.149 32.11C114.91 31.9804 114.651 31.9156 114.371 31.9156C114.091 31.9156 113.832 31.9804 113.593 32.11C113.355 32.2344 113.163 32.4263 113.018 32.6856C112.878 32.9396 112.808 33.2533 112.808 33.6267C112.808 34 112.878 34.3163 113.018 34.5756C113.163 34.8296 113.352 35.0215 113.585 35.1511C113.824 35.2756 114.083 35.3378 114.363 35.3378ZM118.039 29.9944V35.75H117.495V29.9944H118.039ZM122.951 31.5033V35.75H122.406V35.0033C122.282 35.2678 122.09 35.47 121.831 35.61C121.572 35.75 121.281 35.82 120.96 35.82C120.452 35.82 120.037 35.6644 119.715 35.3533C119.394 35.037 119.233 34.5807 119.233 33.9844V31.5033H119.77V33.9222C119.77 34.3837 119.884 34.7363 120.112 34.98C120.345 35.2237 120.662 35.3456 121.061 35.3456C121.47 35.3456 121.797 35.2159 122.041 34.9567C122.284 34.6974 122.406 34.3163 122.406 33.8133V31.5033H122.951ZM124.902 31.9622V34.5989C124.902 34.8581 124.951 35.037 125.049 35.1356C125.148 35.2341 125.322 35.2833 125.57 35.2833H126.068V35.75H125.485C125.101 35.75 124.816 35.6619 124.629 35.4856C124.443 35.3041 124.349 35.0085 124.349 34.5989V31.9622H123.758V31.5033H124.349V30.4378H124.902V31.5033H126.068V31.9622H124.902ZM127.238 30.7022C127.129 30.7022 127.036 30.6633 126.958 30.5856C126.881 30.5078 126.842 30.4119 126.842 30.2978C126.842 30.1837 126.881 30.0904 126.958 30.0178C127.036 29.94 127.129 29.9011 127.238 29.9011C127.347 29.9011 127.441 29.94 127.518 30.0178C127.596 30.0904 127.635 30.1837 127.635 30.2978C127.635 30.4119 127.596 30.5078 127.518 30.5856C127.441 30.6633 127.347 30.7022 127.238 30.7022ZM127.511 31.5033V35.75H126.966V31.5033H127.511ZM130.602 35.8122C130.203 35.8122 129.843 35.7241 129.521 35.5478C129.205 35.3663 128.953 35.1122 128.767 34.7856C128.585 34.4537 128.495 34.0674 128.495 33.6267C128.495 33.1859 128.588 32.8022 128.775 32.4756C128.961 32.1437 129.215 31.8896 129.537 31.7133C129.858 31.5319 130.219 31.4411 130.618 31.4411C131.017 31.4411 131.378 31.5319 131.699 31.7133C132.026 31.8896 132.28 32.1437 132.461 32.4756C132.648 32.8022 132.741 33.1859 132.741 33.6267C132.741 34.0622 132.648 34.4459 132.461 34.7778C132.275 35.1096 132.018 35.3663 131.691 35.5478C131.365 35.7241 131.002 35.8122 130.602 35.8122ZM130.602 35.3378C130.882 35.3378 131.142 35.2756 131.38 35.1511C131.619 35.0215 131.81 34.8296 131.956 34.5756C132.106 34.3163 132.181 34 132.181 33.6267C132.181 33.2533 132.109 32.9396 131.963 32.6856C131.818 32.4263 131.626 32.2344 131.388 32.11C131.149 31.9804 130.89 31.9156 130.61 31.9156C130.33 31.9156 130.071 31.9804 129.832 32.11C129.594 32.2344 129.402 32.4263 129.257 32.6856C129.117 32.9396 129.047 33.2533 129.047 33.6267C129.047 34 129.117 34.3163 129.257 34.5756C129.402 34.8296 129.591 35.0215 129.825 35.1511C130.063 35.2756 130.322 35.3378 130.602 35.3378ZM135.725 31.4256C136.233 31.4256 136.648 31.5837 136.969 31.9C137.291 32.2111 137.451 32.6648 137.451 33.2611V35.75H136.915V33.3233C136.915 32.8619 136.798 32.5093 136.565 32.2656C136.337 32.0219 136.023 31.9 135.624 31.9C135.214 31.9 134.887 32.0296 134.644 32.2889C134.4 32.5481 134.278 32.9293 134.278 33.4322V35.75H133.734V31.5033H134.278V32.2267C134.413 31.9674 134.607 31.7704 134.861 31.6356C135.116 31.4956 135.403 31.4256 135.725 31.4256ZM140.118 35.8122C139.63 35.8122 139.231 35.7007 138.92 35.4778C138.614 35.2496 138.443 34.9411 138.407 34.5522H138.967C138.993 34.7907 139.104 34.9852 139.301 35.1356C139.503 35.2807 139.773 35.3533 140.11 35.3533C140.406 35.3533 140.636 35.2833 140.802 35.1433C140.973 35.0033 141.059 34.8296 141.059 34.6222C141.059 34.477 141.012 34.3578 140.919 34.2644C140.826 34.1711 140.706 34.0985 140.561 34.0467C140.421 33.9896 140.229 33.93 139.986 33.8678C139.669 33.7848 139.413 33.7019 139.216 33.6189C139.019 33.5359 138.85 33.4141 138.71 33.2533C138.575 33.0874 138.508 32.867 138.508 32.5922C138.508 32.3848 138.57 32.193 138.694 32.0167C138.819 31.8404 138.995 31.7004 139.223 31.5967C139.451 31.493 139.711 31.4411 140.001 31.4411C140.457 31.4411 140.826 31.5578 141.106 31.7911C141.386 32.0193 141.536 32.3356 141.557 32.74H141.012C140.997 32.4911 140.898 32.2915 140.717 32.1411C140.54 31.9856 140.297 31.9078 139.986 31.9078C139.711 31.9078 139.488 31.9726 139.317 32.1022C139.146 32.2319 139.06 32.3926 139.06 32.5844C139.06 32.7504 139.109 32.8878 139.208 32.9967C139.311 33.1004 139.439 33.1833 139.589 33.2456C139.739 33.3026 139.941 33.3674 140.196 33.44C140.501 33.523 140.745 33.6033 140.927 33.6811C141.108 33.7589 141.264 33.873 141.393 34.0233C141.523 34.1737 141.59 34.3733 141.596 34.6222C141.596 34.8504 141.533 35.0552 141.409 35.2367C141.284 35.413 141.111 35.553 140.888 35.6567C140.665 35.7604 140.408 35.8122 140.118 35.8122Z" fill="white"/>
</svg>
